<?xml version="1.0" standalone="no"?>
<!DOCTYPE svg PUBLIC "-//W3C//DTD SVG 20010904//EN"
 "http://www.w3.org/TR/2001/REC-SVG-20010904/DTD/svg10.dtd">
<svg version="1.0" xmlns="http://www.w3.org/2000/svg"
 width="972.000000pt" height="972.000000pt" viewBox="0 0 972.000000 972.000000"
 preserveAspectRatio="xMidYMid meet">
<metadata>
Created by potrace 1.14, written by Peter Selinger 2001-2017
</metadata>
<g transform="translate(0.000000,972.000000) scale(0.100000,-0.100000)"
fill="#000000" stroke="none">
<path d="M4665 9601 c-11 -4 -30 -6 -42 -5 -12 0 -20 -2 -18 -6 3 -4 -2 -10
-10 -14 -8 -3 -15 -1 -15 5 0 6 -7 6 -17 1 -10 -5 -28 -6 -41 -3 -12 3 -61 4
-108 1 -47 -3 -88 -1 -91 4 -4 5 -11 2 -17 -6 -14 -18 -46 -31 -46 -17 0 6 -7
6 -20 -1 -14 -8 -20 -8 -20 0 0 8 -6 8 -20 0 -14 -8 -20 -8 -20 0 0 8 -6 8
-20 0 -14 -8 -20 -8 -20 0 0 8 -6 8 -20 0 -14 -8 -20 -8 -20 0 0 7 -5 8 -12 3
-7 -4 -21 -8 -30 -9 -10 -1 -20 -3 -23 -4 -8 -4 -24 -7 -41 -9 -8 0 -13 -5
-10 -9 3 -5 -1 -9 -9 -9 -8 0 -11 5 -8 11 4 6 -1 5 -10 -3 -9 -7 -17 -11 -17
-8 0 3 -14 1 -32 -4 -23 -6 -34 -5 -40 4 -6 9 -8 9 -8 0 0 -7 -6 -13 -14 -13
-8 0 -17 -6 -19 -12 -4 -9 -8 -9 -14 -3 -11 13 -33 17 -33 6 0 -5 -9 -7 -20
-4 -11 3 -20 0 -20 -6 0 -6 -5 -11 -11 -11 -5 0 -7 5 -3 12 5 7 3 8 -7 2 -18
-11 -38 -16 -66 -15 -13 0 -23 -3 -23 -7 0 -7 -20 -11 -72 -13 -10 0 -18 -4
-18 -10 0 -5 -5 -9 -11 -9 -5 0 -7 5 -3 11 4 7 -3 6 -17 -2 -13 -7 -27 -13
-31 -14 -3 0 -10 -3 -14 -7 -4 -4 -13 -3 -20 3 -10 8 -15 8 -19 -3 -3 -8 -18
-13 -33 -13 -15 1 -36 -6 -46 -14 -13 -11 -17 -12 -12 -3 7 12 4 12 -14 2 -12
-6 -28 -9 -36 -6 -8 3 -13 2 -10 -3 3 -5 -1 -11 -9 -15 -8 -3 -17 -1 -21 5 -4
6 -13 4 -24 -6 -10 -9 -24 -14 -29 -10 -6 3 -11 1 -11 -5 0 -6 -4 -8 -10 -5
-5 3 -10 1 -10 -5 0 -6 -4 -8 -10 -5 -5 3 -16 3 -22 -2 -7 -4 -24 -9 -37 -11
-13 -2 -30 -10 -39 -18 -12 -13 -16 -13 -23 -2 -7 11 -9 11 -9 -1 0 -9 -8 -12
-25 -9 -20 4 -23 2 -15 -8 9 -10 6 -11 -9 -7 -13 3 -21 1 -21 -8 0 -7 -3 -9
-7 -6 -3 4 -13 1 -21 -6 -11 -8 -14 -8 -9 0 5 8 0 9 -22 0 -17 -6 -27 -16 -23
-21 3 -6 -2 -5 -11 3 -14 11 -18 11 -23 -3 -5 -12 -10 -14 -19 -6 -10 8 -15 8
-21 -1 -5 -8 -3 -9 6 -4 8 5 11 4 7 -2 -4 -6 -18 -9 -31 -8 -14 2 -30 -3 -37
-11 -6 -8 -17 -14 -24 -14 -8 0 -16 -8 -18 -17 -4 -16 -5 -15 -6 1 -1 20 -1
20 -17 0 -8 -10 -13 -12 -9 -4 5 12 4 12 -7 -1 -7 -9 -19 -14 -25 -12 -7 3
-13 0 -13 -7 0 -6 -3 -9 -7 -7 -13 8 -55 -12 -48 -23 3 -5 1 -10 -4 -10 -6 0
-11 5 -11 10 0 6 -5 10 -11 10 -5 0 -7 -4 -4 -10 3 -5 1 -10 -5 -10 -6 0 -9
-4 -5 -9 3 -5 1 -12 -4 -15 -5 -4 -13 -1 -17 5 -5 8 -3 9 6 4 9 -6 11 -4 6 4
-6 9 -12 9 -25 -3 -10 -9 -25 -16 -34 -16 -9 0 -17 -4 -17 -9 0 -5 -14 -11
-31 -15 -17 -3 -28 -10 -24 -16 3 -6 0 -7 -9 -4 -9 3 -13 11 -9 18 3 6 2 7 -3
3 -5 -5 -9 -14 -9 -20 0 -6 -11 -14 -25 -18 -14 -4 -18 -8 -10 -9 8 -1 4 -5
-10 -9 -14 -4 -25 -12 -25 -19 0 -12 -16 -15 -25 -5 -3 4 1 3 9 -2 10 -6 12
-4 7 4 -6 9 -12 9 -25 -3 -10 -9 -21 -13 -24 -10 -4 4 -9 -1 -13 -10 -3 -9
-13 -16 -21 -16 -8 0 -12 -4 -9 -9 3 -5 -1 -11 -9 -14 -10 -4 -12 -1 -8 11 4
13 2 12 -10 -3 -8 -11 -14 -23 -11 -26 2 -3 -8 -4 -23 -1 -16 3 -24 1 -20 -5
4 -6 -1 -17 -10 -24 -12 -10 -14 -10 -9 -1 10 17 -2 15 -20 -3 -9 -8 -12 -20
-8 -27 6 -9 3 -9 -9 1 -15 12 -17 11 -17 -5 0 -16 -2 -17 -10 -4 -8 13 -10 12
-10 -4 0 -12 -5 -16 -15 -13 -8 4 -22 -4 -33 -18 -15 -19 -22 -21 -32 -12 -10
9 -11 9 -6 -1 10 -17 -12 -42 -36 -42 -18 0 -19 -2 -7 -17 13 -15 12 -15 -10
-4 -14 8 -21 9 -17 2 4 -6 -4 -13 -19 -17 -20 -5 -23 -9 -15 -19 9 -11 7 -12
-9 -8 -15 4 -21 1 -21 -12 0 -13 -3 -15 -13 -6 -17 13 -38 -5 -30 -25 3 -9 -2
-14 -12 -14 -12 0 -15 -5 -11 -17 5 -15 4 -15 -9 1 -13 17 -15 18 -15 3 0 -9
-5 -17 -11 -17 -5 0 -8 -4 -4 -9 3 -5 0 -13 -6 -17 -8 -5 -9 -3 -4 6 5 8 3 11
-6 8 -8 -3 -13 -10 -12 -16 2 -6 -4 -9 -12 -6 -11 5 -13 2 -9 -10 5 -12 2 -15
-12 -9 -11 4 -15 3 -10 -5 3 -6 -3 -13 -14 -17 -11 -4 -17 -11 -14 -17 4 -6 2
-8 -4 -4 -6 3 -14 1 -17 -5 -4 -5 -13 -8 -21 -5 -8 3 -13 2 -13 -2 1 -4 1 -16
0 -27 -1 -17 -3 -18 -12 -5 -9 12 -10 11 -6 -7 4 -16 1 -20 -11 -16 -12 5 -14
2 -9 -12 6 -14 5 -15 -6 -7 -9 8 -17 8 -27 0 -12 -8 -12 -9 3 -4 9 3 17 1 17
-4 0 -6 -7 -10 -15 -10 -8 0 -15 -8 -15 -17 0 -14 -2 -15 -9 -5 -6 10 -10 8
-14 -8 -3 -12 -10 -19 -16 -15 -7 3 -8 0 -5 -10 5 -11 2 -14 -10 -9 -12 5 -15
2 -10 -10 4 -11 1 -16 -11 -16 -11 0 -15 -5 -11 -16 4 -9 2 -13 -5 -8 -6 4
-14 3 -18 -2 -3 -5 -15 -14 -26 -20 -11 -6 -20 -17 -20 -25 0 -8 -6 -18 -13
-22 -7 -5 -9 -14 -6 -20 4 -7 3 -9 -1 -4 -10 9 -45 -21 -45 -40 0 -7 -6 -13
-14 -13 -8 0 -18 -5 -22 -11 -4 -8 1 -9 17 -5 14 3 11 0 -8 -9 -22 -10 -33
-22 -33 -36 0 -11 -4 -17 -10 -14 -5 3 -10 -3 -10 -14 0 -11 -9 -27 -21 -35
-14 -9 -18 -19 -13 -28 6 -11 5 -11 -8 0 -14 11 -16 10 -14 -12 3 -21 0 -24
-14 -16 -14 8 -17 5 -15 -15 2 -16 -1 -22 -10 -19 -7 3 -16 0 -21 -7 -5 -8 -3
-10 7 -5 8 4 6 1 -3 -7 -19 -15 -23 -32 -10 -40 4 -2 2 -3 -4 -1 -6 1 -17 -2
-25 -7 -10 -6 -11 -9 -1 -9 10 0 10 -3 0 -14 -7 -8 -16 -12 -20 -9 -5 2 -8 -1
-8 -6 0 -6 6 -11 13 -12 6 0 2 -5 -11 -11 -12 -6 -22 -20 -22 -30 0 -11 -4
-17 -9 -13 -5 3 -13 0 -17 -6 -4 -7 -3 -9 4 -5 6 3 13 2 16 -3 4 -5 2 -12 -4
-16 -16 -10 -1 -25 17 -18 11 4 14 3 9 -5 -5 -9 -1 -9 18 -2 24 9 30 6 28 -11
-1 -3 5 -6 13 -6 8 0 12 4 9 9 -3 4 -1 8 4 8 6 0 13 -8 16 -17 5 -12 10 -13
18 -5 8 8 18 6 36 -6 21 -14 24 -14 17 -2 -7 12 -6 13 6 4 8 -6 37 -12 64 -13
48 -1 51 0 62 30 9 22 17 30 28 25 13 -5 14 -2 4 17 -12 21 -11 21 6 7 10 -8
16 -10 12 -3 -4 6 0 18 8 26 18 18 20 31 3 21 -7 -4 -8 -3 -4 5 4 6 12 9 17 6
5 -4 9 -1 9 5 0 6 5 8 13 4 9 -6 9 -4 -1 8 -11 14 -10 19 9 32 12 8 27 12 32
9 6 -4 7 -1 2 7 -5 8 1 20 16 32 13 11 17 16 9 12 -12 -6 -13 -5 -3 8 7 8 10
18 6 22 -4 4 0 4 10 0 13 -4 17 -1 17 14 0 12 5 24 12 28 7 4 8 3 4 -4 -5 -8
-2 -10 8 -6 19 7 21 20 4 28 -7 4 -3 4 9 2 16 -3 20 0 16 12 -4 10 -2 13 5 8
6 -3 13 -2 17 4 3 5 0 10 -7 10 -10 0 -9 3 2 9 8 6 18 7 24 4 5 -3 6 -1 2 5
-3 6 1 17 9 25 18 18 20 31 3 21 -7 -4 -8 -3 -4 5 6 9 11 9 24 -1 12 -10 14
-10 8 0 -4 6 -2 12 4 12 6 0 15 11 20 25 5 14 21 30 35 35 14 5 28 16 31 25 3
8 10 12 15 9 5 -3 6 3 2 13 -3 10 -3 15 2 11 4 -4 14 -1 21 7 17 17 18 29 2
19 -7 -4 -8 -3 -4 5 6 9 11 9 24 -1 9 -7 13 -8 9 -2 -4 7 2 14 13 17 15 4 18
10 13 24 -3 10 -3 15 2 11 4 -4 19 5 33 20 13 15 21 21 18 15 -5 -9 -2 -11 8
-7 9 3 16 13 16 21 0 8 5 11 12 7 8 -5 9 -2 4 11 -6 16 -4 16 11 4 9 -8 14 -9
10 -3 -4 7 0 14 8 18 8 3 15 13 15 23 0 14 2 15 9 5 6 -11 9 -9 14 7 3 14 11
19 25 16 16 -3 19 0 15 12 -4 11 -2 14 5 9 7 -4 12 -1 12 9 0 9 5 13 10 10 6
-3 10 -1 10 4 0 6 5 11 11 11 5 0 7 -6 3 -12 -4 -8 -3 -10 2 -5 5 5 9 14 9 20
0 5 6 12 14 15 9 3 11 0 6 -8 -5 -9 -4 -11 4 -6 9 6 9 11 -1 24 -11 13 -11 14
0 8 15 -9 55 27 44 39 -4 4 3 3 15 -4 20 -10 21 -9 18 11 -4 22 -4 22 10 4 12
-16 15 -17 15 -4 0 9 11 19 25 22 13 3 29 15 35 26 6 11 20 20 30 20 11 0 20
5 20 11 0 5 -5 7 -12 3 -7 -4 -8 -3 -4 5 4 6 11 9 16 6 4 -3 10 2 14 10 3 8
11 15 18 14 10 0 10 -2 0 -6 -6 -2 -10 -9 -7 -13 8 -12 43 22 36 35 -2 6 3 4
12 -4 10 -8 20 -11 24 -7 3 3 1 6 -5 6 -7 0 -12 5 -12 11 0 5 5 7 10 4 6 -3
10 -1 10 6 0 7 3 9 7 6 3 -4 12 1 20 11 8 9 11 11 8 4 -6 -11 -3 -12 14 -3 11
7 21 16 21 21 0 5 7 7 15 4 8 -4 15 -2 15 4 0 5 11 13 25 16 14 4 23 11 20 16
-4 6 4 9 17 7 14 -1 22 3 20 11 -1 6 2 12 6 12 4 0 14 -6 21 -12 10 -9 12 -9
7 -1 -8 14 4 22 37 25 14 1 23 6 21 10 -3 5 -10 5 -16 2 -7 -4 -8 -2 -4 5 4 6
11 9 16 6 12 -8 41 6 34 16 -3 5 5 8 18 6 15 -1 22 3 20 11 -1 8 2 11 9 6 7
-4 18 1 26 11 9 14 13 15 13 4 0 -11 2 -12 9 -1 4 8 11 13 15 13 26 -4 36 0
30 12 -5 7 0 6 11 -3 11 -9 16 -10 11 -2 -4 7 -1 12 9 12 9 0 13 5 9 11 -4 7
0 9 13 5 10 -3 28 0 38 8 15 11 24 12 35 3 8 -6 12 -7 7 -2 -10 11 70 48 85
39 7 -5 8 -3 3 6 -6 10 -4 12 8 7 10 -3 17 -2 17 3 0 6 11 10 25 10 16 0 25 6
25 16 0 13 3 14 14 5 10 -9 16 -8 26 4 7 8 16 12 21 9 5 -3 9 0 9 7 0 8 5 7
17 -2 11 -10 14 -10 9 -1 -5 8 2 12 24 12 22 0 29 4 24 13 -5 7 0 6 11 -3 15
-12 17 -12 10 -1 -6 11 -2 13 19 9 14 -3 29 -1 32 4 3 4 10 5 16 2 7 -4 8 -2
4 4 -7 12 4 16 38 12 13 -1 16 2 10 12 -6 11 -5 11 8 0 12 -10 18 -9 28 3 7 8
16 12 21 9 5 -3 9 0 9 6 0 6 4 8 10 5 5 -3 19 -1 31 6 12 6 19 7 16 2 -3 -5 7
-7 24 -5 16 2 29 9 29 14 0 5 4 7 8 4 4 -2 14 -1 22 4 9 5 20 4 30 -3 8 -6 12
-7 8 -3 -15 18 12 35 38 26 13 -5 24 -6 24 -2 0 4 12 8 28 7 15 0 37 5 49 13
14 9 23 10 28 3 4 -8 12 -8 24 -1 10 5 21 6 25 3 3 -3 6 -2 6 4 0 5 13 9 30 8
16 -1 27 2 24 7 -3 4 -1 8 5 8 5 0 12 -4 15 -9 3 -4 17 -6 31 -4 13 3 22 10
19 15 -4 6 3 5 15 -1 11 -7 21 -8 21 -3 0 13 39 22 46 11 3 -5 10 -6 16 -3 6
4 26 7 45 6 19 -1 31 2 29 7 -3 5 28 8 69 7 41 0 75 3 75 7 0 4 9 3 20 -3 11
-6 20 -7 20 -2 0 4 12 7 28 6 15 -1 38 3 52 9 29 11 69 13 93 4 9 -3 17 -3 17
1 0 4 11 7 25 7 14 0 25 -4 25 -9 0 -5 6 -3 14 3 10 8 16 9 21 1 4 -6 12 -7
23 -1 11 6 24 6 35 0 9 -6 17 -6 17 -2 0 4 11 8 25 8 14 0 25 -4 25 -9 0 -5 6
-3 14 3 10 8 16 9 21 1 4 -7 12 -7 25 0 13 7 21 7 25 0 5 -8 11 -7 21 1 11 9
14 9 14 -1 0 -10 3 -10 14 -1 10 9 16 9 21 1 5 -8 10 -8 20 0 8 7 15 7 19 1 7
-10 24 -10 43 2 6 4 14 3 18 -3 4 -7 13 -6 28 1 16 9 22 9 25 1 2 -8 9 -9 22
-2 15 8 21 6 29 -7 7 -12 10 -14 11 -4 0 9 4 10 13 4 6 -6 46 -11 87 -12 41
-2 78 -5 82 -7 4 -3 8 0 8 6 0 7 6 8 19 0 14 -7 20 -7 23 1 3 8 10 6 20 -5 11
-11 18 -12 20 -4 3 8 9 6 19 -4 10 -11 20 -13 36 -7 13 5 25 4 28 -1 4 -7 13
-7 24 0 10 5 21 7 24 4 2 -3 15 -7 28 -8 13 -2 31 -6 39 -9 25 -9 80 -14 80
-7 0 4 7 7 15 7 8 0 12 -4 9 -9 -4 -7 26 -13 49 -9 4 0 7 -4 7 -10 0 -8 4 -8
14 0 10 9 16 8 26 -4 11 -13 15 -13 21 -3 7 10 9 10 9 -1 0 -7 6 -11 13 -8 8
3 20 1 28 -3 8 -5 19 -4 28 3 12 9 13 9 7 0 -5 -9 1 -13 19 -13 14 0 24 -4 21
-9 -4 -5 9 -6 29 -1 22 5 38 4 42 -3 4 -6 1 -7 -7 -2 -9 5 -11 4 -6 -4 6 -9
11 -9 24 1 9 8 13 8 9 2 -4 -7 0 -14 8 -18 8 -3 15 -1 15 4 0 6 9 5 23 -1 52
-28 57 -29 57 -18 0 7 9 4 22 -7 13 -12 18 -13 13 -4 -8 13 -6 13 8 2 9 -8 20
-11 25 -8 5 3 17 -1 28 -8 10 -8 23 -12 29 -10 6 3 24 -2 40 -10 23 -12 31
-13 37 -3 5 8 8 6 8 -6 0 -10 5 -15 10 -12 6 3 10 1 10 -5 0 -6 4 -9 10 -5 5
3 25 -1 45 -9 19 -8 35 -13 35 -10 0 3 9 0 20 -6 11 -6 18 -16 15 -23 -4 -7 0
-3 9 7 13 17 16 17 21 3 4 -8 13 -18 21 -21 9 -3 12 -1 9 4 -3 6 -1 10 4 10 6
0 11 -5 11 -11 0 -5 5 -7 10 -4 6 3 10 -2 11 -12 0 -10 3 -13 6 -6 3 10 8 9
20 -2 8 -8 19 -13 24 -10 5 4 9 0 9 -7 0 -10 2 -10 9 1 7 11 11 9 20 -8 7 -11
17 -21 24 -21 7 0 6 4 -3 10 -9 6 -10 10 -3 10 6 0 15 -5 18 -10 4 -6 11 -8
16 -5 5 4 12 0 15 -8 3 -8 13 -13 24 -10 10 3 21 -1 25 -8 6 -8 4 -10 -5 -4
-9 5 -11 4 -6 -4 6 -9 11 -9 21 -1 10 8 15 8 21 -1 5 -8 3 -9 -6 -4 -9 5 -11
4 -6 -3 4 -7 18 -12 32 -12 14 0 22 -4 19 -10 -4 -6 5 -10 20 -10 20 0 26 -4
21 -15 -6 -16 14 -16 26 0 4 6 8 2 8 -9 0 -15 3 -16 15 -6 10 9 15 9 15 1 0
-6 7 -11 15 -11 8 0 15 -4 15 -10 0 -5 7 -10 16 -10 9 0 23 -8 31 -17 10 -12
12 -13 8 -3 -4 8 1 6 9 -4 12 -15 16 -16 17 -5 0 8 4 4 9 -8 6 -15 18 -23 34
-23 13 0 26 -6 29 -14 3 -8 16 -20 28 -26 15 -8 19 -9 15 -1 -4 6 -3 11 3 11
6 0 15 -9 21 -20 6 -11 21 -22 35 -26 13 -3 26 -12 29 -20 3 -8 11 -14 18 -14
10 0 10 2 0 9 -11 7 -11 9 2 14 9 4 15 3 15 -1 -4 -28 1 -34 18 -21 11 9 14
10 9 2 -4 -7 -2 -21 4 -30 10 -16 11 -16 6 2 -6 19 -5 19 7 3 8 -10 17 -15 20
-11 4 3 7 -1 7 -11 0 -9 5 -14 10 -11 6 4 26 -9 44 -29 18 -20 36 -33 40 -29
4 4 23 -10 43 -32 30 -33 33 -35 18 -10 -16 27 -13 26 23 -10 22 -22 38 -43
36 -47 -3 -4 3 -5 12 -1 13 5 15 3 9 -8 -7 -11 -5 -11 10 1 17 14 18 13 12 -4
-6 -15 -4 -17 13 -13 11 3 18 1 14 -4 -3 -5 0 -9 6 -9 6 0 8 -5 4 -12 -5 -8
-2 -9 9 -5 16 6 22 -3 18 -26 -1 -5 3 -6 9 -2 5 3 10 0 10 -7 0 -9 3 -9 10 2
9 13 10 13 11 0 1 -8 1 -19 0 -23 -1 -5 3 -6 9 -2 5 3 10 2 10 -4 0 -5 9 -8
20 -6 14 3 20 -2 20 -15 0 -10 9 -25 20 -33 11 -8 17 -17 12 -22 -4 -4 1 -5
11 -2 11 4 17 1 17 -8 0 -8 5 -15 11 -15 5 0 7 -6 3 -12 -5 -8 -1 -8 12 2 10
8 16 11 12 6 -4 -4 16 -28 43 -52 27 -24 46 -44 41 -44 -4 0 -23 16 -42 35
-19 19 -39 35 -44 35 -4 0 13 -20 40 -45 26 -25 53 -45 59 -45 7 0 19 -8 26
-17 11 -15 11 -16 -1 -5 -8 6 -19 12 -24 12 -6 0 0 -7 12 -16 12 -8 26 -13 31
-10 4 3 6 -7 4 -22 -3 -23 -2 -24 6 -7 9 19 10 19 10 -3 1 -13 5 -20 11 -17 6
3 10 1 10 -5 0 -6 5 -8 12 -4 8 5 9 2 5 -10 -5 -11 -3 -15 5 -10 8 5 9 2 5 -9
-10 -26 2 -20 13 6 8 18 9 16 4 -12 -4 -23 -3 -31 5 -27 6 4 11 0 11 -8 0 -9
5 -16 11 -16 5 0 7 -5 3 -12 -5 -8 -2 -9 9 -5 16 6 22 -4 18 -27 -1 -5 5 -6
13 -3 10 4 13 1 10 -7 -3 -7 5 -18 18 -24 13 -6 17 -11 11 -11 -7 -1 -13 -6
-13 -12 0 -5 5 -7 10 -4 6 3 10 1 10 -5 0 -6 4 -9 9 -6 5 3 12 -1 15 -10 4
-10 2 -13 -7 -9 -6 4 -4 0 7 -9 10 -8 15 -19 11 -25 -3 -6 2 -11 13 -11 10 0
27 -10 38 -22 l19 -23 -23 19 c-20 17 -22 18 -16 3 3 -10 15 -22 25 -27 11 -7
16 -18 14 -33 -4 -22 -4 -22 11 -2 15 19 15 19 9 -6 -5 -20 -2 -30 13 -40 10
-8 18 -22 16 -31 -1 -11 3 -15 12 -11 8 3 14 2 13 -3 -4 -22 2 -33 16 -28 8 4
22 1 30 -6 12 -10 15 -9 15 4 0 9 5 16 10 16 6 0 10 -5 10 -11 0 -6 7 -3 16 5
18 18 28 21 18 5 -3 -6 4 -4 17 4 13 8 34 14 47 12 12 -1 22 2 22 6 0 4 7 10
16 13 8 3 12 2 9 -4 -3 -6 -1 -10 4 -10 6 0 11 7 11 16 0 14 3 14 15 4 12 -10
18 -10 32 1 9 8 19 12 22 11 38 -23 44 -24 38 -8 -4 9 -2 16 4 16 6 0 6 6 0
19 -6 10 -7 22 -3 27 4 5 -2 2 -12 -6 -18 -14 -19 -13 -13 2 4 11 -1 25 -11
35 -10 10 -24 27 -32 38 -11 15 -7 14 15 -5 l29 -25 -25 31 c-13 17 -27 29
-31 27 -5 -2 -8 3 -8 12 0 9 -4 13 -10 10 -5 -3 -10 1 -10 10 0 10 5 13 13 9
7 -4 9 -3 4 2 -5 5 -14 9 -20 9 -7 0 -11 8 -11 17 1 9 -4 14 -10 12 -7 -3 -12
6 -13 18 -1 13 -7 24 -13 26 -5 2 -8 8 -4 13 3 5 0 8 -8 7 -7 -2 -12 3 -10 10
1 8 -2 11 -9 6 -9 -5 -10 -2 -5 11 5 15 4 16 -9 5 -13 -11 -14 -10 -9 5 5 11
3 16 -2 12 -14 -8 -47 50 -38 66 4 6 4 9 0 5 -4 -3 -16 1 -27 10 -21 18 -26
37 -6 26 8 -5 7 -2 -2 9 -9 12 -17 14 -25 8 -8 -7 -12 -4 -13 10 -2 28 -23 51
-40 45 -11 -5 -13 0 -7 16 6 20 5 21 -10 9 -14 -12 -16 -12 -10 3 3 9 1 16 -5
16 -6 0 -11 11 -11 25 0 14 -4 25 -9 25 -5 0 -7 -10 -5 -22 2 -13 1 -16 -2 -8
-4 8 -13 23 -21 32 -8 9 -12 21 -9 26 3 5 -1 9 -9 9 -8 0 -12 -4 -9 -9 14 -22
-6 -4 -22 20 -17 26 -17 27 2 12 18 -14 18 -14 5 3 -8 10 -20 16 -28 13 -8 -3
-11 -1 -8 4 3 6 -1 13 -9 16 -9 3 -13 11 -9 17 4 6 0 8 -9 4 -19 -7 -38 10
-32 28 3 6 -3 18 -13 26 -17 13 -17 13 -3 -5 14 -18 14 -18 -7 -6 -12 8 -21
16 -21 19 2 20 -3 31 -12 26 -6 -4 -7 -11 -4 -17 4 -7 2 -8 -4 -4 -9 5 -9 13
-2 26 9 16 8 18 -7 13 -12 -5 -15 -2 -11 9 5 11 0 14 -19 12 -17 -2 -23 2 -19
11 3 8 0 17 -6 21 -7 4 -8 3 -4 -4 4 -7 2 -12 -3 -12 -6 0 -11 5 -11 11 0 5
-4 8 -8 5 -13 -8 -36 40 -27 56 6 10 5 11 -6 1 -7 -7 -20 -13 -29 -12 -10 0
-11 2 -2 6 6 2 12 9 12 14 0 4 -7 5 -17 2 -11 -4 -14 -3 -9 5 4 7 2 12 -4 12
-6 0 -23 14 -37 30 -13 17 -31 30 -39 30 -9 0 -12 5 -9 11 4 6 0 9 -8 7 -9 -2
-17 2 -18 7 -3 14 -32 34 -41 29 -5 -3 -9 5 -9 18 -1 17 -3 18 -6 6 -2 -10 -9
-18 -14 -18 -6 0 -8 4 -5 9 8 13 -21 34 -35 25 -9 -5 -10 -2 -6 9 3 9 3 16 -1
15 -15 -3 -42 15 -42 28 0 8 -3 13 -7 13 -25 -4 -43 2 -37 13 4 6 3 8 -3 5 -5
-3 -22 1 -37 8 -16 8 -32 12 -37 9 -5 -3 -6 3 -2 12 4 11 2 15 -4 11 -6 -4
-14 0 -17 9 -3 9 -13 14 -20 11 -8 -3 -17 1 -20 9 -3 8 -15 14 -27 14 -16 0
-20 4 -15 17 4 10 4 14 0 10 -4 -4 -18 0 -30 8 -14 9 -25 11 -29 5 -4 -6 -11
-5 -19 3 -8 6 -12 15 -10 19 2 4 -1 10 -7 14 -8 4 -9 3 -5 -4 4 -7 3 -12 -3
-12 -5 0 -12 6 -14 13 -4 9 -8 8 -17 -3 -10 -13 -11 -12 -6 3 3 10 -3 26 -16
39 -16 16 -20 17 -15 5 9 -23 -5 -21 -23 3 -8 11 -20 20 -26 20 -14 0 -73 30
-59 30 12 0 -16 20 -28 20 -5 0 -5 -6 -1 -12 5 -9 2 -9 -9 1 -9 7 -17 21 -18
30 0 12 -2 12 -8 -3 -7 -18 -8 -18 -14 -3 -4 10 -17 17 -34 17 -19 0 -24 3
-15 9 11 7 11 9 -2 14 -9 4 -16 2 -16 -4 0 -6 -5 -7 -10 -4 -6 4 -8 10 -5 15
3 4 -2 11 -11 14 -10 4 -13 2 -8 -7 5 -8 2 -8 -9 2 -9 7 -23 11 -32 7 -8 -3
-14 -2 -14 2 3 18 -2 26 -10 14 -6 -10 -11 -9 -22 4 -12 15 -12 17 0 9 10 -5
12 -4 7 3 -5 9 -13 9 -26 2 -16 -9 -18 -8 -13 6 4 12 3 15 -5 10 -7 -4 -12 -2
-12 5 0 7 -3 9 -7 6 -3 -4 -13 -1 -21 6 -13 9 -14 9 -8 0 5 -9 2 -11 -8 -7 -9
3 -14 9 -12 13 2 3 -7 7 -21 8 -14 0 -29 6 -33 13 -6 10 -9 9 -12 0 -3 -10 -7
-10 -18 1 -8 8 -26 15 -40 17 -14 1 -27 7 -28 12 -2 6 -8 7 -13 4 -6 -3 -17 0
-26 8 -14 11 -16 11 -8 -2 6 -11 3 -10 -12 3 -11 9 -23 14 -26 10 -4 -3 -7 -1
-7 5 0 7 -5 12 -11 12 -5 0 -7 -6 -3 -12 5 -7 -5 -3 -20 10 -16 12 -33 19 -38
16 -5 -3 -18 2 -29 12 -13 12 -19 13 -19 4 0 -10 -3 -10 -15 0 -8 7 -24 10
-35 7 -11 -3 -18 -2 -15 3 3 4 -2 11 -11 14 -8 3 -12 2 -9 -4 3 -6 1 -10 -4
-10 -6 0 -11 8 -11 18 0 14 -2 15 -10 2 -6 -10 -10 -11 -10 -2 0 6 -11 12 -25
12 -14 0 -25 4 -25 10 0 5 -7 6 -17 3 -12 -5 -14 -3 -8 8 6 11 5 12 -5 2 -11
-10 -18 -9 -34 5 -14 12 -17 13 -11 2 7 -12 6 -13 -6 -3 -8 6 -37 15 -64 18
-84 11 -96 14 -111 26 -8 6 -14 8 -14 3 0 -5 -11 -9 -24 -9 -13 0 -22 3 -19 8
2 4 -6 7 -19 7 -13 0 -30 4 -37 9 -9 6 -22 6 -32 1 -9 -5 -19 -6 -23 -3 -4 4
-17 8 -29 10 -12 2 -23 8 -25 13 -2 5 -13 5 -28 0 -13 -5 -24 -6 -24 -1 0 4
-13 7 -30 6 -16 -1 -27 2 -23 7 3 6 -16 9 -43 8 -27 -2 -57 1 -67 5 -10 4 -20
5 -24 2 -3 -3 -13 1 -21 10 -11 11 -17 12 -20 4 -3 -9 -7 -9 -18 0 -8 6 -14 8
-14 4 0 -4 -8 -1 -17 6 -14 12 -16 12 -8 0 6 -11 5 -12 -6 -5 -18 12 -179 22
-179 11 0 -4 -9 -3 -20 3 -11 6 -20 7 -20 2 0 -5 -18 -6 -40 -2 -25 5 -40 4
-40 -3 0 -6 -5 -5 -13 1 -8 7 -18 7 -27 2 -8 -5 -22 -4 -34 3 -33 17 -116 24
-138 11 -4 -3 -8 -1 -8 4 0 5 -20 6 -45 2 -25 -4 -48 -3 -51 2 -3 4 -13 4 -23
-1 -9 -5 -23 -6 -31 -1 -7 4 -23 5 -35 0 -11 -4 -28 -4 -36 0 -7 4 -23 5 -34
1z m-1425 -231 c0 -5 -5 -10 -11 -10 -5 0 -7 5 -4 10 3 6 8 10 11 10 2 0 4 -4
4 -10z m-475 -160 c3 -5 -1 -10 -10 -10 -9 0 -13 5 -10 10 3 6 8 10 10 10 2 0
7 -4 10 -10z m565 -74 c0 -3 -4 -8 -10 -11 -5 -3 -10 -1 -10 4 0 6 5 11 10 11
6 0 10 -2 10 -4z m4094 -215 c-2 -3 -12 3 -22 13 -16 17 -16 18 5 5 12 -7 20
-15 17 -18z m-5434 -105 c0 -2 -8 -10 -17 -17 -16 -13 -17 -12 -4 4 13 16 21
21 21 13z m5255 -114 c-3 -3 -11 0 -18 7 -9 10 -8 11 6 5 10 -3 15 -9 12 -12z
m-5035 -72 c0 -5 -2 -10 -4 -10 -3 0 -8 5 -11 10 -3 6 -1 10 4 10 6 0 11 -4
11 -10z m5690 -15 c0 -2 -6 -7 -12 -11 -7 -4 -10 -4 -6 1 4 4 0 14 -10 22 -15
13 -15 13 6 3 12 -6 22 -13 22 -15z m-295 -145 c3 -5 1 -10 -4 -10 -6 0 -11 5
-11 10 0 6 2 10 4 10 3 0 8 -4 11 -10z m-6288 -225 c0 -8 -4 -12 -9 -9 -5 3
-6 10 -3 15 9 13 12 11 12 -6z m-57 -75 c0 -5 -5 -10 -11 -10 -5 0 -7 5 -4 10
3 6 8 10 11 10 2 0 4 -4 4 -10z m7155 -49 c3 -5 2 -12 -3 -15 -5 -3 -9 1 -9 9
0 17 3 19 12 6z"/>
<path d="M8186 8358 c3 -5 10 -6 15 -3 13 9 11 12 -6 12 -8 0 -12 -4 -9 -9z"/>
<path d="M3640 8315 c0 -16 -2 -17 -10 -5 -8 12 -10 12 -16 -3 -5 -14 -9 -15
-20 -6 -8 6 -14 8 -14 3 0 -10 -72 -10 -89 0 -6 4 -11 1 -11 -6 0 -9 -3 -9
-10 2 -8 13 -10 13 -10 -2 0 -11 -5 -15 -15 -12 -8 4 -22 1 -30 -6 -8 -7 -22
-10 -30 -6 -11 4 -14 2 -9 -6 5 -7 2 -9 -8 -5 -9 3 -19 3 -22 -1 -4 -3 -19 -8
-34 -10 -15 -2 -36 -11 -46 -20 -11 -9 -17 -12 -13 -6 3 6 0 11 -8 11 -8 0
-13 -3 -10 -5 8 -8 -47 -42 -67 -42 -10 0 -18 -5 -18 -11 0 -6 -7 -8 -16 -5
-9 3 -12 2 -9 -5 4 -6 0 -9 -8 -7 -9 2 -17 -1 -18 -7 -5 -19 -37 -47 -47 -41
-5 3 -16 -2 -23 -12 -13 -16 -13 -16 5 -2 18 14 19 14 6 -7 -11 -17 -17 -19
-27 -11 -11 8 -12 7 -7 -6 5 -12 0 -19 -15 -23 -18 -5 -19 -8 -9 -21 8 -9 8
-13 2 -9 -15 8 -38 -18 -29 -33 4 -6 3 -9 -2 -8 -4 2 -21 -10 -36 -25 -26 -27
-27 -28 -5 -22 22 5 22 5 -2 -9 -16 -10 -20 -16 -10 -16 8 -1 5 -5 -9 -11 -14
-6 -21 -15 -18 -23 3 -8 1 -16 -4 -18 -5 -2 -11 -13 -12 -26 0 -12 -5 -22 -10
-22 -5 0 -6 -7 -3 -16 3 -9 2 -12 -5 -9 -6 4 -10 1 -8 -6 3 -29 -1 -50 -10
-44 -5 3 -13 0 -17 -6 -4 -8 -3 -9 4 -5 7 4 12 1 12 -8 0 -9 -5 -16 -11 -16
-5 0 -7 -5 -4 -10 4 -6 2 -17 -5 -25 -8 -10 -8 -15 1 -21 9 -5 7 -11 -6 -21
-11 -7 -15 -13 -11 -13 5 0 3 -7 -4 -15 -6 -8 -9 -19 -5 -25 3 -5 2 -10 -2
-10 -5 0 -8 -16 -7 -35 1 -19 -1 -35 -6 -35 -9 0 -11 -29 -13 -205 -2 -138 -2
-140 -24 -139 -13 0 -23 -3 -23 -6 0 -4 -18 -4 -40 0 -22 4 -40 3 -40 -2 0 -5
-9 -4 -20 2 -11 6 -20 7 -20 3 0 -4 -88 -7 -195 -5 -204 3 -203 3 -196 45 0 4
-4 7 -10 7 -8 0 -7 6 2 17 10 11 10 14 2 9 -12 -7 -14 -3 -17 32 -1 7 -7 16
-13 20 -11 7 -20 35 -22 70 -1 6 -7 12 -15 12 -8 0 -17 7 -20 16 -5 14 -4 15
8 5 11 -9 16 -9 22 0 4 7 3 9 -3 6 -12 -8 -54 38 -45 49 4 4 -2 4 -12 0 -17
-6 -17 -5 -5 11 9 11 10 14 2 9 -8 -4 -13 -1 -13 8 0 9 -7 16 -16 16 -9 0 -12
5 -8 13 6 9 4 9 -8 -1 -13 -10 -18 -10 -24 -1 -4 8 -3 9 4 5 8 -4 10 -2 6 8
-3 8 -12 12 -20 9 -8 -3 -14 0 -14 7 0 6 -5 8 -10 5 -6 -3 -10 -1 -10 6 0 6
-8 9 -19 6 -13 -3 -21 1 -24 14 -3 12 -11 16 -26 12 -13 -3 -21 -1 -21 7 0 10
-3 10 -14 1 -10 -9 -16 -9 -21 -1 -5 8 -10 8 -20 0 -9 -7 -15 -8 -19 -1 -5 7
-15 7 -31 1 -17 -7 -25 -6 -25 1 0 8 -5 7 -15 -1 -8 -7 -22 -10 -30 -6 -9 3
-14 2 -11 -3 3 -5 -2 -15 -11 -22 -12 -10 -14 -10 -9 -1 4 7 1 12 -9 12 -9 0
-13 -4 -10 -10 3 -5 -1 -10 -9 -10 -9 0 -16 -7 -16 -15 0 -9 -6 -12 -15 -9
-10 4 -15 0 -15 -11 0 -9 -5 -13 -10 -10 -6 4 -7 12 -3 18 4 7 -1 6 -11 -2 -9
-8 -15 -20 -12 -28 3 -7 -1 -13 -10 -13 -10 0 -14 -6 -11 -14 4 -9 -2 -12 -18
-11 -17 2 -21 -1 -18 -14 2 -9 -3 -25 -12 -36 -16 -19 -16 -19 -5 5 11 24 10
24 -5 5 -8 -11 -13 -25 -10 -33 2 -7 -2 -15 -11 -19 -9 -3 -14 -13 -11 -24 3
-10 0 -17 -5 -16 -6 1 -13 -4 -16 -12 -3 -9 0 -11 9 -6 7 5 2 -7 -11 -25 -13
-18 -19 -31 -14 -27 6 3 11 0 11 -8 0 -8 -4 -12 -8 -9 -4 2 -10 0 -14 -6 -3
-5 -1 -10 5 -10 6 0 8 -5 3 -12 -4 -7 -6 -24 -4 -38 2 -14 0 -22 -4 -18 -3 3
-20 2 -36 -2 -16 -5 -29 -5 -29 0 0 5 -13 5 -29 0 -15 -4 -34 -4 -40 0 -7 4
-30 4 -52 0 -21 -4 -39 -4 -39 1 0 4 -13 4 -29 -1 -15 -4 -34 -4 -40 0 -7 4
-30 4 -52 0 -21 -4 -39 -4 -39 1 0 4 -13 4 -28 -1 -16 -4 -36 -4 -45 1 -10 6
-18 5 -22 -1 -4 -6 -11 -8 -16 -5 -5 4 -9 0 -9 -7 0 -9 -3 -9 -10 2 -6 10 -10
11 -10 3 0 -7 -7 -13 -15 -13 -8 0 -15 -4 -15 -8 0 -5 -6 -9 -12 -10 -23 -2
-43 -7 -57 -16 -9 -6 -12 -5 -8 1 3 5 0 10 -8 10 -8 0 -12 -4 -8 -9 3 -6 -5
-8 -18 -6 -19 2 -23 -1 -21 -16 2 -11 -1 -15 -7 -11 -6 3 -11 0 -11 -7 0 -10
-2 -10 -8 -1 -6 9 -12 7 -22 -7 -10 -14 -17 -16 -26 -9 -9 8 -11 5 -8 -8 3
-11 -3 -23 -17 -31 -15 -10 -19 -10 -14 -1 6 8 4 10 -4 4 -7 -4 -11 -15 -8
-25 3 -13 0 -17 -10 -13 -8 3 -13 0 -11 -8 2 -8 -3 -13 -11 -11 -12 3 -12 0
-1 -13 11 -13 10 -15 -4 -9 -12 4 -15 2 -10 -9 3 -8 0 -18 -7 -23 -8 -5 -10
-3 -4 6 5 8 4 11 -3 7 -5 -4 -9 -15 -8 -24 3 -19 -25 -52 -39 -46 -5 3 -1 -3
9 -11 11 -9 14 -16 8 -16 -7 0 -12 -11 -12 -24 0 -13 -6 -27 -12 -29 -10 -4
-10 -8 1 -15 11 -8 9 -11 -9 -17 -18 -6 -20 -9 -9 -16 10 -6 11 -9 2 -9 -9 0
-13 -18 -13 -54 0 -30 -5 -58 -10 -61 -8 -5 -7 -12 2 -23 10 -12 10 -14 1 -8
-10 6 -13 -404 -13 -2033 0 -1626 3 -2041 13 -2041 8 0 7 -4 -3 -10 -8 -5 -10
-10 -5 -10 6 0 15 -11 22 -25 6 -14 7 -23 2 -19 -5 3 -9 1 -9 -5 0 -5 4 -11
10 -13 5 -1 11 -12 13 -23 7 -36 19 -55 31 -48 6 4 5 -1 -3 -11 -13 -15 -12
-18 8 -23 15 -4 19 -8 11 -13 -7 -4 -9 -13 -6 -19 4 -6 11 -9 16 -6 5 3 11 1
15 -5 3 -5 2 -10 -3 -10 -5 0 -9 -7 -9 -15 0 -8 4 -12 9 -9 4 3 8 0 8 -6 0 -6
4 -9 9 -6 4 3 7 -6 5 -19 -1 -14 1 -23 6 -20 16 10 39 -7 35 -27 -4 -17 -2
-18 12 -6 12 9 15 9 9 1 -4 -8 -1 -13 8 -13 9 0 16 -5 16 -11 0 -5 -5 -7 -12
-3 -7 4 -8 3 -4 -5 4 -6 12 -9 17 -6 5 4 13 -4 18 -17 6 -13 10 -17 11 -8 0 9
6 6 15 -10 7 -14 16 -24 19 -22 16 6 36 0 51 -15 9 -9 28 -17 41 -17 13 -1 30
-11 39 -21 10 -14 14 -16 15 -6 0 11 3 11 13 -3 7 -9 17 -17 22 -16 23 5 36
-1 29 -12 -5 -8 0 -7 11 2 15 12 17 12 10 1 -6 -11 -4 -13 8 -8 10 3 17 2 17
-4 0 -6 5 -7 10 -4 6 3 10 1 10 -4 0 -6 9 -11 21 -11 13 0 18 -4 13 -13 -6 -9
-4 -9 8 1 12 9 18 10 23 2 5 -8 10 -8 20 0 9 8 15 8 20 0 4 -7 12 -7 25 0 13
7 21 7 26 -2 5 -7 3 -8 -6 -3 -8 5 -11 4 -7 -3 4 -5 17 -8 29 -4 13 3 19 1 15
-5 -3 -5 0 -10 8 -10 8 0 15 3 15 7 0 4 18 4 40 0 22 -4 40 -3 40 2 0 5 9 4
20 -2 11 -6 20 -7 20 -2 0 11 110 -4 123 -17 6 -6 18 -6 33 -1 13 5 24 6 24 1
0 -4 20 -5 45 -1 25 4 48 4 50 -1 4 -6 27 -6 45 1 14 6 36 4 46 -3 6 -4 23 -3
38 3 18 7 26 6 26 -1 0 -6 9 -9 20 -6 11 3 18 2 15 -3 -7 -11 41 -19 57 -9 7
4 18 3 25 -3 8 -6 13 -7 13 -1 0 7 15 8 40 3 22 -4 40 -3 40 2 0 5 9 4 20 -2
14 -8 20 -8 20 0 0 8 6 8 20 0 14 -8 20 -8 20 0 0 8 6 8 20 0 11 -6 20 -7 20
-3 0 4 20 8 45 8 33 0 45 -4 45 -15 0 -12 2 -12 9 -2 7 11 11 10 24 -2 10 -11
18 -12 22 -6 5 8 11 7 21 -1 11 -9 14 -9 14 1 0 10 3 10 14 1 10 -9 16 -9 21
-1 4 7 11 8 18 2 7 -5 21 -6 32 -2 11 4 30 4 43 -1 13 -5 22 -5 22 1 0 9 32 6
49 -5 5 -3 12 -1 16 4 4 7 15 7 31 1 18 -7 23 -7 18 1 -5 8 -1 8 14 0 11 -6
23 -16 25 -23 3 -8 6 -5 6 6 1 14 4 16 14 7 8 -6 17 -8 20 -4 4 3 7 2 7 -4 0
-5 7 -10 15 -10 8 0 15 4 15 9 0 5 9 4 20 -2 11 -6 20 -7 20 -3 0 4 45 6 100
3 55 -3 100 -1 100 3 0 4 9 3 20 -3 11 -6 20 -7 20 -3 0 4 45 6 100 3 55 -3
100 -1 100 3 0 4 9 3 20 -3 11 -6 20 -7 20 -2 0 5 18 6 40 2 22 -4 40 -3 40 2
0 5 9 4 20 -2 15 -8 20 -8 20 1 0 8 4 8 13 1 8 -7 18 -7 27 -2 9 5 19 5 27 -2
9 -7 13 -7 13 1 0 9 5 9 20 1 14 -8 20 -8 20 0 0 8 6 8 20 0 15 -8 20 -8 20 1
0 8 4 8 13 1 8 -7 18 -7 27 -2 9 5 19 5 27 -2 8 -6 13 -7 13 -1 0 7 15 8 40 3
22 -4 40 -4 40 1 0 5 10 5 23 0 14 -5 30 -5 40 0 12 7 17 6 17 -2 0 -9 3 -9
14 0 10 9 16 9 21 1 5 -8 11 -8 20 0 9 7 16 6 25 -5 7 -8 15 -13 19 -11 4 3
13 1 21 -4 8 -5 21 -5 30 0 9 5 22 5 30 0 8 -5 21 -5 30 0 9 5 22 5 29 0 8 -4
27 -4 42 0 16 5 31 5 34 0 4 -7 26 -7 45 0 15 6 36 4 48 -4 8 -5 12 -4 12 4 0
8 4 9 13 3 10 -8 32 -10 40 -3 7 6 48 6 57 0 6 -4 29 -4 51 0 21 4 39 4 39 -1
0 -4 13 -4 29 1 15 4 34 4 40 0 7 -4 30 -4 52 0 21 4 39 4 39 1 0 -6 50 -6 58
-1 3 3 41 3 47 0 13 -6 31 -6 46 1 8 4 21 4 28 -1 8 -4 27 -4 42 0 16 5 31 5
34 0 4 -7 33 -7 43 0 3 3 41 3 47 0 13 -6 31 -6 46 1 8 4 21 4 28 -1 8 -4 27
-4 42 0 16 5 31 5 34 0 4 -7 26 -7 45 0 15 6 36 4 48 -4 8 -5 12 -4 12 4 0 8
4 9 13 3 14 -11 27 -11 44 0 6 4 15 3 18 -3 4 -6 12 -7 18 -3 11 8 31 9 50 3
18 -6 33 -6 48 1 8 4 21 4 28 -1 8 -4 27 -4 42 0 16 5 31 5 34 0 4 -7 33 -7
43 0 3 3 41 3 47 0 13 -6 31 -6 46 1 8 4 21 4 28 -1 8 -4 27 -4 42 0 16 5 31
5 34 0 4 -7 26 -7 45 0 15 6 36 4 48 -4 7 -5 12 -4 12 3 0 7 5 9 10 6 6 -3 10
0 10 7 0 11 2 10 9 0 7 -11 9 -11 14 2 5 12 12 14 32 6 16 -6 25 -6 25 1 0 6
7 6 20 -1 15 -8 20 -8 20 1 0 8 4 8 13 1 8 -7 18 -7 27 -2 9 5 19 5 27 -2 9
-7 13 -7 13 1 0 9 5 9 20 1 14 -8 20 -8 20 0 0 8 6 8 20 0 15 -8 20 -8 20 1 0
8 4 8 13 1 8 -7 18 -7 27 -2 9 5 19 5 27 -2 8 -6 13 -7 13 -1 0 7 15 8 40 3
22 -4 40 -3 40 2 0 5 9 4 20 -2 11 -6 20 -7 20 -3 0 4 45 6 100 3 55 -3 100
-1 100 3 0 4 9 3 20 -3 11 -6 20 -7 20 -3 0 9 158 8 167 -1 10 -10 25 -7 18 4
-3 6 1 7 9 4 10 -4 16 -1 16 7 0 11 3 11 10 -1 7 -12 10 -12 10 -1 0 7 6 11
15 8 8 -4 17 -2 21 4 4 7 10 6 19 -1 10 -8 15 -8 20 0 5 8 11 8 19 1 9 -7 16
-7 24 1 9 9 12 9 12 -1 0 -10 3 -11 14 -2 10 9 16 9 21 1 5 -8 10 -8 20 0 9 8
15 8 20 0 4 -7 12 -7 25 0 13 7 21 7 25 0 5 -8 11 -7 21 1 11 9 14 9 14 -1 0
-10 3 -10 14 -1 10 9 16 9 21 1 5 -8 10 -8 20 0 9 8 15 8 20 0 4 -6 12 -7 23
-1 11 6 24 6 34 0 10 -6 19 -6 23 0 3 6 15 7 28 2 15 -6 34 -4 56 5 32 13 33
13 20 -3 -12 -16 -11 -16 8 0 17 15 34 18 77 15 31 -1 56 1 56 5 0 4 9 3 20
-3 11 -6 20 -7 20 -3 0 7 130 9 187 3 37 -4 64 0 58 9 -3 5 0 13 6 17 7 4 9 3
5 -4 -3 -6 -2 -13 4 -17 5 -3 10 -1 10 5 0 7 6 10 13 7 6 -2 22 0 35 4 12 5
22 5 22 0 0 -4 20 -5 45 -1 25 4 48 3 51 -2 3 -4 13 -4 23 1 9 5 23 6 31 1 7
-4 23 -5 35 0 12 5 28 5 35 0 7 -5 24 -4 38 1 13 5 29 6 35 2 17 -11 36 -12
42 -3 4 6 30 6 60 0 28 -6 56 1 49 13 -5 8 -2 8 9 -2 12 -10 17 -10 17 -2 0 9
26 11 95 9 52 -2 95 1 95 5 0 4 9 3 20 -3 11 -6 20 -7 20 -3 0 4 29 8 65 7 36
-1 65 3 65 9 0 5 9 7 20 4 11 -3 20 -1 20 5 0 5 4 6 10 3 5 -3 20 0 32 6 22
12 22 11 8 -7 -14 -18 -14 -18 5 -2 20 16 74 25 104 17 7 -2 16 3 18 11 4 13
3 13 -6 0 -6 -8 -11 -10 -11 -4 0 18 12 24 31 14 10 -6 20 -6 23 -1 3 5 15 7
26 4 12 -3 20 0 20 7 0 9 4 9 17 -1 9 -8 14 -9 10 -3 -8 14 17 26 37 18 8 -3
20 3 27 14 8 10 22 18 32 16 15 -2 16 0 6 12 -10 12 -9 13 5 8 11 -4 16 -1 16
10 0 9 5 16 11 16 5 0 8 -4 5 -9 -4 -5 3 -7 14 -4 11 3 17 9 14 14 -5 8 10 13
20 7 9 -6 44 35 40 46 -3 7 3 19 13 27 16 12 17 12 6 -2 -10 -13 -10 -16 2
-16 7 0 14 3 13 6 -2 20 4 31 13 25 8 -4 9 0 4 15 -5 16 -2 21 11 21 14 0 15
2 3 17 -9 10 -9 14 -2 10 7 -5 16 1 23 13 8 15 8 20 -2 20 -9 0 -9 3 2 9 8 6
17 8 21 5 4 -2 5 6 1 18 -3 15 -2 19 7 14 8 -5 10 0 7 18 -3 18 -1 23 10 19
10 -4 14 2 14 20 0 14 6 28 13 30 9 4 9 6 -1 6 -10 1 -10 6 -2 21 6 11 8 26 4
32 -5 8 -2 9 10 5 14 -5 15 -3 6 13 -7 13 -7 21 0 25 8 5 8 11 0 20 -8 10 -8
15 0 20 8 5 8 10 0 20 -8 10 -8 15 0 20 8 5 8 10 0 20 -8 10 -8 15 0 20 8 5 8
10 0 20 -8 10 -8 15 0 20 8 5 8 10 0 20 -8 10 -8 15 0 20 8 5 8 11 -1 21 -9
11 -9 17 0 28 9 10 9 16 1 21 -8 5 -8 10 0 20 8 10 8 15 0 20 -8 5 -8 10 0 20
8 10 8 15 0 20 -8 5 -8 10 0 20 8 10 8 15 0 20 -8 5 -8 10 0 20 8 10 8 15 0
20 -8 5 -8 10 0 20 8 10 8 15 0 20 -8 5 -8 10 0 20 8 10 8 15 0 20 -6 4 -7 12
-3 18 10 15 10 38 0 54 -4 6 -3 15 3 18 8 5 8 11 0 20 -8 10 -8 15 0 20 8 5 8
10 0 20 -8 10 -8 15 0 20 8 5 8 10 0 20 -8 10 -8 15 0 20 8 5 8 10 0 20 -8 10
-8 15 0 20 8 5 8 10 0 20 -8 10 -8 15 0 20 8 5 8 10 0 20 -8 10 -8 15 0 20 8
5 8 10 0 20 -8 10 -8 15 0 20 8 5 8 10 0 20 -8 10 -8 15 0 20 8 5 8 10 0 20
-8 10 -8 15 0 20 8 5 8 10 0 20 -8 10 -8 15 0 20 8 5 8 10 0 20 -8 10 -8 15 0
20 8 5 8 10 0 20 -8 10 -8 15 0 20 8 5 8 10 0 20 -8 10 -8 15 0 20 8 5 8 10 0
20 -8 10 -8 15 0 20 8 5 8 11 -1 21 -9 11 -9 17 0 28 9 10 9 16 1 21 -8 5 -8
10 0 20 8 10 8 15 0 20 -8 5 -8 10 0 20 8 10 8 15 0 20 -8 5 -8 10 0 20 8 10
8 15 0 20 -8 5 -8 10 0 20 8 10 8 15 0 20 -8 5 -8 10 0 20 8 10 8 15 0 20 -8
5 -8 10 0 20 8 9 8 15 0 20 -6 3 -7 12 -3 18 10 16 10 38 0 60 -4 9 -4 17 0
17 10 0 10 41 0 57 -4 7 -3 15 3 18 8 5 8 11 0 20 -8 10 -8 15 0 20 8 5 8 10
0 20 -8 10 -8 15 0 20 8 5 8 10 0 20 -8 10 -8 15 0 20 8 5 8 10 0 20 -8 10 -8
15 0 20 8 5 8 10 0 20 -8 10 -8 15 0 20 8 5 8 10 0 20 -8 10 -8 15 0 20 8 5 8
10 0 20 -8 10 -8 15 0 20 8 5 8 10 0 20 -8 10 -8 15 0 20 8 5 8 10 0 20 -8 10
-8 15 0 20 8 5 8 10 0 20 -8 10 -8 15 0 20 8 5 8 10 0 20 -8 10 -8 15 0 20 8
5 8 10 0 20 -8 10 -8 15 0 20 8 5 8 10 0 20 -8 10 -8 15 0 20 8 5 8 10 0 20
-8 10 -8 15 0 20 8 5 8 10 0 20 -8 10 -8 15 0 20 8 5 8 10 0 20 -8 10 -8 15 0
20 8 5 8 10 0 20 -8 10 -8 15 0 20 8 5 8 10 0 20 -8 10 -8 15 0 20 8 5 8 10 0
20 -8 10 -8 15 0 20 8 5 8 10 0 20 -8 10 -8 15 0 20 8 5 8 10 0 20 -8 10 -8
15 0 20 8 5 8 10 0 20 -8 10 -8 15 0 20 8 5 8 10 0 20 -8 10 -8 15 0 20 8 5 8
10 0 20 -8 10 -8 15 0 20 8 5 8 10 0 20 -8 10 -8 15 0 20 8 5 8 10 0 20 -8 10
-8 15 0 20 8 5 8 10 0 20 -8 10 -8 15 0 20 8 5 8 10 0 20 -8 10 -8 15 0 20 8
5 8 10 0 20 -8 10 -8 15 0 20 8 5 8 10 0 20 -8 10 -8 15 0 20 8 5 8 10 0 20
-8 10 -8 15 0 20 8 5 8 10 0 20 -8 10 -8 15 0 20 8 5 8 10 0 20 -8 10 -8 15 0
20 8 5 8 10 0 20 -8 10 -8 15 0 20 8 5 8 10 0 20 -8 10 -8 15 0 20 8 5 8 10 0
20 -8 10 -8 15 0 20 8 5 8 10 0 20 -8 10 -8 15 0 20 8 5 8 10 0 20 -8 10 -8
15 0 20 8 5 8 10 0 20 -8 10 -8 15 0 20 8 5 8 10 0 20 -8 10 -8 15 0 20 8 5 8
10 0 20 -8 10 -8 15 0 20 8 5 8 10 0 20 -8 10 -8 15 0 20 8 5 8 10 0 20 -8 10
-8 15 0 20 8 5 8 10 0 20 -8 10 -8 15 0 20 8 5 8 10 0 20 -8 9 -8 15 0 20 7 4
7 12 0 26 -6 10 -7 19 -3 19 10 0 10 41 0 57 -4 7 -3 15 3 18 8 5 8 11 0 20
-8 10 -8 15 0 20 8 5 8 10 0 20 -8 10 -8 15 0 20 8 5 8 10 0 20 -8 10 -8 15 0
20 8 5 8 10 0 20 -8 10 -8 15 0 20 8 5 8 10 0 20 -8 10 -8 15 0 20 8 5 8 11
-1 21 -9 11 -9 14 0 14 9 0 9 5 1 20 -8 14 -8 20 0 20 8 0 8 6 0 20 -8 14 -8
20 0 20 6 0 4 13 -6 31 -11 23 -12 29 -2 23 10 -6 10 -4 -1 9 -7 9 -11 17 -8
17 3 0 2 14 -3 30 -5 17 -6 30 -2 30 4 0 7 65 7 145 0 81 -4 145 -9 145 -5 0
-6 3 -3 7 4 3 -1 15 -10 25 -16 18 -16 18 2 12 18 -7 18 -6 2 16 -9 14 -17 35
-17 48 0 12 -6 38 -14 57 -13 31 -13 33 2 28 13 -4 12 -2 -3 10 -11 8 -23 14
-26 11 -3 -2 -4 8 -1 21 2 15 0 25 -7 25 -7 0 -9 -5 -5 -12 4 -7 3 -8 -5 -4
-6 4 -9 12 -5 17 3 6 -3 18 -15 28 -11 10 -17 22 -13 27 4 4 -1 2 -10 -5 -18
-13 -19 -13 -22 12 0 6 -9 12 -19 12 -10 0 -24 8 -31 17 -7 10 -16 15 -19 11
-4 -3 -15 0 -24 8 -10 9 -28 14 -40 13 -13 0 -23 1 -23 5 0 3 -126 5 -280 3
-218 -2 -279 -5 -273 -15 5 -9 3 -9 -9 1 -13 10 -17 10 -22 -4 -5 -13 -10 -14
-18 -6 -7 7 -17 8 -28 2 -9 -5 -22 -5 -29 -1 -7 5 -30 5 -52 1 -21 -4 -39 -4
-39 1 0 4 -13 4 -29 -1 -15 -4 -34 -4 -40 0 -7 4 -30 4 -52 0 -21 -4 -39 -4
-39 1 0 4 -13 4 -29 -1 -15 -4 -34 -4 -40 0 -7 4 -30 4 -52 0 -21 -4 -39 -4
-39 1 0 4 -13 4 -29 -1 -15 -4 -34 -4 -40 0 -7 4 -30 4 -52 0 -21 -4 -39 -4
-39 0 0 4 -20 4 -45 0 -25 -4 -48 -4 -50 1 -4 6 -40 5 -40 -1 0 -6 -47 -5 -51
1 -4 8 -42 4 -52 -5 -2 -3 -13 -1 -23 5 -14 7 -19 7 -17 -3 2 -9 -17 -12 -69
-12 -40 -1 -73 -5 -73 -9 0 -4 -9 -3 -20 3 -11 6 -20 7 -20 3 0 -4 -45 -6
-100 -3 -55 3 -100 1 -100 -3 0 -4 -9 -3 -20 3 -11 6 -20 7 -20 3 0 -5 -17 -7
-38 -5 l-39 4 1 124 c1 96 -2 125 -13 129 -9 4 -10 9 -3 18 7 8 7 18 2 27 -5
8 -6 18 -4 22 3 4 0 8 -6 8 -6 0 -8 5 -3 13 13 20 12 36 -3 48 -8 7 -12 20 -9
30 4 11 0 33 -9 49 -8 17 -10 27 -4 24 8 -5 9 -1 3 12 -4 10 -8 29 -8 41 -1
12 -5 19 -11 16 -5 -4 -7 3 -4 15 4 12 1 25 -4 29 -7 3 -8 1 -4 -5 4 -7 5 -12
2 -12 -3 0 -10 10 -17 21 -9 17 -8 20 3 13 11 -6 11 -5 -1 9 -7 9 -10 17 -5
17 5 0 1 5 -9 11 -15 9 -16 13 -5 27 8 9 8 13 1 9 -7 -4 -15 5 -22 23 -5 17
-7 30 -4 30 4 0 -2 7 -13 16 -10 8 -12 13 -4 9 8 -4 6 1 -4 9 -11 9 -16 16
-10 16 5 0 2 6 -6 13 -9 7 -22 27 -29 45 -7 17 -17 32 -22 32 -5 0 -9 7 -9 16
0 8 -4 12 -10 9 -9 -6 -15 8 -11 29 1 5 -5 3 -14 -4 -8 -7 -18 -10 -22 -6 -3
3 -2 6 4 6 5 0 10 7 10 15 0 11 -4 12 -14 3 -7 -6 -16 -8 -20 -4 -3 3 -1 6 5
6 7 0 12 5 12 11 0 6 -6 9 -13 6 -13 -5 -43 30 -39 46 1 4 -2 8 -8 8 -5 1 -14
2 -20 3 -5 0 -15 8 -22 16 -11 12 -11 12 3 2 12 -9 16 -9 16 2 0 9 -10 13 -28
12 -15 -1 -26 2 -23 6 3 4 -3 8 -13 8 -14 0 -15 2 -4 9 9 6 -2 11 -32 15 -25
4 -48 13 -51 21 -3 8 -11 15 -18 15 -9 0 -8 -3 2 -10 8 -5 10 -10 4 -10 -6 0
-18 8 -28 19 -11 12 -28 17 -51 15 -19 -1 -35 1 -35 6 0 5 -12 5 -27 1 -33 -8
-138 11 -126 23 4 5 -2 3 -14 -3 -16 -8 -23 -8 -23 -1 0 7 -7 7 -21 -1 -15 -8
-19 -8 -15 0 5 7 -2 11 -18 11 -14 0 -26 5 -26 10 0 7 -6 7 -19 1 -10 -6 -21
-8 -23 -5 -9 8 -238 10 -238 1 0 -4 -9 -3 -20 3 -11 6 -20 7 -20 2 0 -5 -18
-6 -40 -2 -22 4 -40 3 -40 -2 0 -5 -9 -4 -20 2 -11 6 -20 7 -20 2 0 -5 -18 -6
-40 -2 -22 4 -40 3 -40 -2 0 -5 -9 -4 -20 2 -11 6 -20 7 -20 3 0 -4 -45 -6
-100 -3 -55 3 -100 1 -100 -3 0 -4 -9 -3 -20 3 -11 6 -20 7 -20 2 0 -5 -18 -6
-40 -2 -22 4 -40 3 -40 -2 0 -5 -9 -4 -20 2 -11 6 -20 7 -20 2 0 -5 -18 -6
-40 -2 -22 4 -40 3 -40 -2 0 -5 -9 -4 -20 2 -11 6 -20 7 -20 3 0 -4 -45 -6
-100 -3 -55 3 -100 1 -100 -3 0 -4 -9 -3 -20 3 -11 6 -20 7 -20 2 0 -5 -18 -6
-40 -2 -22 4 -40 3 -40 -2 0 -5 -9 -4 -20 2 -11 6 -20 7 -20 2 0 -5 -18 -6
-40 -2 -22 4 -40 3 -40 -2 0 -5 -9 -4 -20 2 -11 6 -20 7 -20 3 0 -4 -45 -6
-100 -3 -55 3 -100 1 -100 -3 0 -4 -9 -3 -20 3 -11 6 -20 7 -20 2 0 -5 -18 -6
-40 -2 -22 4 -40 3 -40 -2 0 -5 -9 -4 -20 2 -11 6 -20 7 -20 2 0 -5 -18 -6
-40 -2 -22 4 -40 3 -40 -2 0 -5 -9 -4 -20 2 -13 7 -20 7 -20 1 0 -12 -32 -2
-42 13 -5 7 -8 7 -8 -1 0 -7 -4 -13 -10 -13 -5 0 -10 6 -10 14 0 10 -9 12 -40
6 -22 -4 -43 -4 -45 0 -4 7 -27 7 -45 0 -15 -6 -36 -4 -47 4 -9 5 -13 4 -13
-4 0 -8 -4 -9 -12 -3 -12 8 -25 9 -45 3 -21 -6 -49 -4 -55 5 -4 6 -8 1 -8 -10z
m5365 -1195 c3 -5 1 -10 -4 -10 -6 0 -11 5 -11 10 0 6 2 10 4 10 3 0 8 -4 11
-10z m-8280 -78 c-3 -3 -11 0 -18 7 -9 10 -8 11 6 5 10 -3 15 -9 12 -12z
m8365 -4987 c-7 -9 -15 -13 -19 -10 -3 3 1 10 9 15 21 14 24 12 10 -5z"/>
<path d="M3185 8210 c-3 -6 1 -7 9 -4 18 7 21 14 7 14 -6 0 -13 -4 -16 -10z"/>
<path d="M1625 8150 c-3 -5 -1 -10 4 -10 6 0 11 5 11 10 0 6 -2 10 -4 10 -3 0
-8 -4 -11 -10z"/>
<path d="M6610 8111 c0 -6 4 -13 10 -16 6 -3 7 1 4 9 -7 18 -14 21 -14 7z"/>
<path d="M1116 8041 c-4 -5 -2 -12 3 -15 5 -4 12 -2 15 3 4 5 2 12 -3 15 -5 4
-12 2 -15 -3z"/>
<path d="M8525 7991 c-3 -5 -2 -12 3 -15 5 -3 9 1 9 9 0 17 -3 19 -12 6z"/>
<path d="M1360 7830 c-9 -6 -10 -10 -3 -10 6 0 15 5 18 10 8 12 4 12 -15 0z"/>
<path d="M1266 7693 c-6 -14 -5 -15 5 -6 7 7 10 15 7 18 -3 3 -9 -2 -12 -12z"/>
<path d="M1130 1612 c0 -13 -45 -21 -61 -11 -14 9 -41 0 -34 -11 3 -4 -1 -8
-8 -7 -62 2 -97 -4 -97 -18 0 -8 6 -15 13 -15 8 0 7 -4 -3 -10 -12 -8 -10 -10
10 -10 20 0 22 -2 10 -10 -13 -8 -12 -10 3 -10 11 0 15 -4 11 -12 -4 -6 -3 -8
3 -5 6 4 19 -1 29 -9 10 -9 12 -13 4 -9 -8 4 -6 -1 5 -10 11 -9 19 -21 17 -27
-2 -7 2 -7 12 1 12 10 14 9 9 -9 -4 -15 -1 -21 8 -19 8 1 22 -1 32 -6 14 -6
15 -10 6 -16 -10 -6 -10 -11 0 -23 8 -9 20 -16 28 -16 8 0 11 -5 7 -12 -5 -8
0 -9 15 -5 19 5 20 3 10 -9 -8 -10 -8 -14 -1 -12 6 2 18 -6 27 -17 9 -11 14
-13 10 -5 -4 8 0 6 9 -4 8 -10 13 -24 9 -29 -4 -6 0 -8 10 -4 9 3 19 1 23 -5
4 -7 3 -8 -4 -4 -7 4 -12 2 -12 -3 0 -6 10 -11 23 -11 18 0 19 -2 7 -11 -12
-9 -10 -10 8 -6 19 5 21 3 11 -9 -9 -11 -8 -14 9 -14 12 0 23 -9 27 -20 3 -11
13 -20 21 -20 8 0 13 -4 10 -9 -3 -5 1 -12 10 -15 8 -3 12 -2 9 4 -3 5 1 7 9
4 9 -3 12 -12 9 -21 -4 -11 -2 -14 5 -9 7 4 12 2 12 -4 0 -6 4 -9 9 -5 5 3 13
0 17 -6 4 -8 3 -9 -4 -5 -7 4 -12 2 -12 -3 0 -6 7 -11 16 -11 9 0 29 -14 44
-30 16 -17 31 -31 34 -30 21 1 26 -2 26 -15 0 -8 4 -15 10 -15 5 0 7 8 4 18
-3 9 1 6 9 -8 9 -14 14 -27 12 -31 -2 -3 2 -6 10 -6 12 0 12 3 2 16 -7 9 -2 8
15 -4 15 -11 28 -23 28 -27 0 -4 7 -5 15 -2 11 5 13 2 8 -12 -4 -11 -3 -15 5
-10 6 3 16 -2 22 -13 6 -12 16 -18 25 -15 10 4 15 0 15 -12 0 -16 2 -17 10 -4
8 12 10 12 10 1 0 -8 3 -12 6 -8 9 8 33 -16 26 -27 -3 -5 2 -7 11 -3 10 4 17
2 17 -4 0 -6 7 -8 16 -5 9 4 13 2 8 -5 -4 -8 1 -9 17 -4 19 5 21 4 9 -4 -13
-9 -12 -11 3 -11 10 0 20 -7 24 -16 3 -9 13 -14 24 -11 10 3 17 0 16 -7 -1 -6
6 -10 16 -10 10 1 16 0 13 -3 -9 -9 18 -31 32 -25 7 2 20 -4 28 -14 9 -11 12
-12 8 -4 -7 13 -5 13 9 2 9 -8 22 -10 29 -6 9 6 9 3 -1 -9 -12 -15 -12 -17 3
-11 11 4 23 -1 32 -12 9 -11 12 -12 8 -4 -7 13 -5 13 9 1 9 -7 17 -10 17 -5 0
5 7 0 15 -10 11 -14 15 -16 15 -5 0 12 2 12 10 -1 5 -8 10 -11 10 -7 0 5 7 1
16 -8 9 -9 24 -13 35 -10 14 5 19 1 19 -12 0 -14 2 -15 9 -4 6 9 11 10 15 2 4
-6 12 -8 18 -5 7 4 8 2 4 -4 -5 -8 0 -12 13 -12 18 0 25 -9 23 -31 -1 -3 5 -6
13 -6 8 0 11 7 7 15 -5 13 -2 13 18 -1 14 -9 32 -17 41 -17 9 0 20 -8 23 -17
6 -15 8 -15 17 -3 7 12 10 11 15 -7 4 -13 11 -20 20 -16 8 3 25 -2 38 -11 18
-12 26 -12 30 -3 3 7 7 3 11 -10 4 -13 12 -23 17 -23 5 0 6 6 2 13 -6 8 -3 8
9 -1 9 -8 21 -11 27 -7 5 3 10 -2 10 -12 0 -15 2 -16 10 -3 6 10 10 11 10 3 0
-7 5 -13 11 -13 5 0 7 6 4 13 -4 6 2 2 14 -11 12 -14 22 -18 26 -12 4 7 11 7
18 2 7 -5 25 -12 40 -16 18 -4 25 -11 20 -19 -4 -8 -1 -7 10 2 15 12 17 11 17
-2 0 -11 6 -14 15 -11 8 4 21 1 29 -5 7 -6 16 -8 19 -4 4 3 12 2 19 -4 7 -5
23 -8 36 -7 12 0 22 -2 22 -7 0 -5 7 -5 17 -2 11 4 14 3 9 -5 -5 -8 -2 -10 9
-6 9 4 23 0 33 -8 9 -8 28 -14 42 -14 14 1 28 -3 31 -7 3 -5 21 -10 40 -13 19
-2 45 -7 57 -10 15 -3 21 -1 17 5 -3 7 0 8 9 5 9 -3 13 -11 9 -17 -3 -6 -1 -7
6 -3 6 4 18 2 26 -4 12 -10 15 -10 15 -1 0 8 6 7 16 -3 19 -19 28 -21 18 -3
-6 9 -5 9 8 0 8 -7 18 -10 21 -6 4 3 7 1 7 -6 0 -8 5 -9 17 -3 18 10 73 -4 73
-18 0 -4 16 -4 36 0 26 6 37 5 40 -5 3 -8 12 -11 19 -9 7 3 22 1 33 -5 13 -7
22 -7 30 1 9 9 12 9 12 0 0 -7 6 -12 13 -11 26 3 38 -1 31 -12 -4 -8 0 -8 15
0 13 8 21 8 21 2 0 -7 9 -7 25 -1 15 6 26 6 30 -1 4 -5 10 -7 15 -4 5 3 11 -3
13 -12 4 -16 5 -16 6 1 1 15 4 16 16 6 8 -7 30 -10 50 -8 19 2 36 -1 38 -7 3
-6 9 -6 19 3 12 10 18 9 28 -3 7 -8 15 -13 19 -11 4 3 13 1 21 -4 8 -5 21 -5
31 1 11 6 20 5 24 -1 3 -6 15 -6 30 0 18 7 28 5 39 -5 18 -18 30 -20 20 -2 -5
8 -2 8 9 -2 9 -7 17 -10 17 -6 0 4 7 2 15 -5 8 -7 15 -8 15 -3 0 13 63 3 72
-11 5 -7 8 -7 8 3 0 10 3 11 13 2 8 -6 17 -8 20 -4 4 3 7 1 7 -6 0 -9 5 -9 20
-1 14 8 20 8 20 0 0 -8 6 -8 20 0 14 8 20 8 20 0 0 -8 6 -8 20 0 14 8 20 8 20
0 0 -8 6 -8 20 0 14 8 20 8 20 0 0 -8 6 -8 20 0 14 8 20 8 20 0 0 -8 6 -8 20
0 14 8 20 8 20 0 0 -7 6 -8 19 0 14 7 22 7 26 0 5 -8 11 -7 21 1 11 9 14 9 14
0 0 -9 5 -9 20 -1 14 8 20 8 20 0 0 -8 6 -8 20 0 14 8 20 8 20 0 0 -8 6 -8 20
0 14 8 20 8 20 0 0 -8 6 -8 20 0 14 8 20 8 20 0 0 -8 6 -8 20 0 14 8 20 8 20
0 0 -8 6 -8 20 0 14 8 20 8 20 0 0 -8 6 -8 20 0 14 8 20 8 20 0 0 -8 6 -8 20
0 14 8 20 8 20 0 0 -8 6 -8 20 0 14 8 20 8 20 0 0 -8 6 -8 20 0 14 8 20 8 20
0 0 -8 6 -8 20 0 14 8 20 8 20 0 0 -8 6 -8 20 0 15 8 20 8 20 -1 0 -9 3 -9 14
0 10 8 16 9 21 1 4 -6 12 -7 23 -1 11 6 24 6 35 0 9 -6 17 -6 17 -2 0 4 11 8
25 8 14 0 25 -4 25 -8 0 -4 9 -3 20 3 14 8 20 8 20 0 0 -8 6 -8 20 0 14 8 20
8 20 0 0 -8 6 -8 20 0 14 8 20 8 20 0 0 -8 6 -8 20 0 12 6 20 7 20 1 0 -5 12
-5 29 2 17 6 28 14 25 18 -2 4 12 3 31 -1 21 -5 35 -4 35 1 0 6 9 5 20 -1 14
-8 20 -8 20 0 0 6 4 9 9 6 5 -3 27 1 50 9 22 7 43 11 45 7 7 -11 100 -4 104 8
3 7 10 6 20 -2 13 -11 14 -11 7 1 -6 11 -4 13 8 8 10 -4 17 -2 17 5 0 7 4 7
14 -1 10 -9 16 -9 21 -1 5 8 10 8 20 0 8 -7 15 -7 19 -1 3 5 16 7 28 3 14 -3
19 -1 14 6 -3 6 -2 13 3 16 5 4 13 1 17 -5 5 -8 3 -9 -6 -4 -9 5 -11 4 -6 -4
5 -7 12 -9 19 -3 17 13 49 23 43 14 -4 -6 39 -8 54 -2 3 1 8 2 13 1 4 0 7 5 7
12 0 8 4 7 10 -3 8 -12 10 -12 10 -1 0 8 7 11 20 8 11 -3 23 -1 26 4 4 6 10 6
18 0 12 -11 40 1 34 14 -1 5 7 9 20 10 12 1 22 -1 22 -4 0 -3 11 -6 24 -6 13
0 22 3 20 6 -2 4 3 10 12 13 23 9 26 8 18 -6 -5 -8 -1 -7 10 2 10 8 31 13 48
12 20 -2 27 1 22 9 -4 8 -3 9 4 5 6 -4 21 -2 32 4 11 6 20 7 20 1 0 -5 9 -7
20 -4 11 3 20 10 20 15 0 5 5 6 10 3 6 -4 7 -11 4 -17 -4 -7 -2 -8 5 -4 6 4 8
12 5 18 -5 7 -1 9 9 5 10 -4 17 -2 17 5 0 7 4 7 13 -1 9 -7 17 -7 24 0 6 6 26
11 46 12 19 1 33 6 30 10 -2 4 7 6 21 3 15 -3 24 -1 21 4 -3 4 2 10 10 14 8 3
15 2 15 -2 0 -4 9 -8 19 -8 15 0 17 4 10 13 -8 9 -6 11 10 8 11 -2 23 0 26 5
3 6 16 5 30 0 17 -7 25 -6 25 1 0 6 6 9 13 7 15 -6 48 27 39 38 -4 5 0 3 10
-4 13 -11 23 -10 50 1 18 8 44 12 56 10 14 -2 21 1 17 7 -3 5 0 7 8 4 8 -3 17
2 20 10 4 9 13 13 21 10 8 -3 17 -1 21 5 10 18 25 12 18 -7 -5 -15 -4 -14 9 2
9 12 20 16 28 11 9 -6 11 -4 5 5 -6 10 -1 12 19 8 22 -4 26 -2 21 10 -3 9 -3
13 1 9 4 -4 14 -1 22 6 13 10 14 9 8 -2 -6 -9 0 -8 17 4 15 9 31 14 37 10 5
-3 10 -1 10 5 0 7 7 9 15 6 9 -3 18 1 21 9 4 8 10 15 16 15 5 0 6 -4 3 -10 -3
-6 1 -7 9 -4 9 3 16 10 16 15 0 5 11 9 24 9 13 0 27 6 29 13 4 9 8 8 16 -3 9
-12 11 -10 11 10 0 18 3 21 9 11 7 -11 13 -9 29 7 11 11 23 18 26 15 3 -4 6
-1 6 5 0 7 3 11 8 11 19 -3 33 2 28 10 -4 5 3 7 14 4 12 -3 20 0 20 7 0 7 8
10 19 7 12 -3 22 1 25 10 4 9 14 13 26 10 11 -3 18 -1 14 4 -3 5 0 9 6 9 6 0
9 4 6 8 -2 4 10 9 27 10 17 2 35 8 39 15 4 7 12 13 18 13 5 1 15 2 21 3 5 0 7
6 3 12 -4 8 0 9 15 4 14 -4 23 -1 27 9 3 9 10 13 15 10 5 -3 9 3 10 13 0 16 1
16 8 -2 8 -19 8 -19 15 3 7 20 10 21 24 10 12 -10 14 -10 8 0 -4 7 -1 12 9 12
9 0 13 4 10 10 -3 5 0 11 7 12 7 0 18 2 23 2 20 3 35 18 29 28 -4 6 1 8 15 3
15 -4 21 -2 21 9 0 9 6 13 14 10 7 -3 22 6 32 19 11 13 25 22 32 19 7 -2 16 5
19 16 3 14 11 18 26 15 18 -4 19 -3 7 6 -13 9 -13 11 3 11 9 0 16 6 15 13 -2
6 5 11 15 9 9 -2 17 2 17 9 0 8 4 8 15 -1 13 -11 14 -10 9 5 -6 14 -4 16 6 10
10 -6 12 -4 7 7 -8 21 3 30 20 17 10 -9 13 -8 13 5 0 9 8 16 19 16 10 0 22 7
25 16 6 15 4 15 -11 3 -16 -11 -16 -11 -5 1 7 8 17 16 22 16 6 1 15 2 21 3 5
0 7 6 3 13 -5 8 -2 9 9 5 11 -4 17 -1 17 8 0 9 8 12 21 10 17 -4 19 -2 9 10
-10 12 -9 15 4 15 9 0 16 7 16 15 0 8 11 17 25 21 19 5 23 10 15 18 -7 9 -4
12 13 12 14 -1 21 4 19 13 -3 12 0 12 12 2 12 -10 17 -9 25 7 6 11 7 23 3 28
-4 5 1 3 10 -4 14 -11 16 -10 14 12 -3 19 1 24 16 21 14 -3 18 0 15 10 -7 16
18 40 31 31 13 -8 30 15 27 37 -3 14 0 16 9 7 15 -12 42 12 32 29 -4 5 -2 12
4 16 5 3 10 1 10 -5 0 -6 4 -9 9 -5 6 3 8 14 6 25 -3 17 -1 19 16 10 10 -6 19
-7 18 -3 -3 18 2 32 17 47 8 9 11 16 5 16 -6 0 -8 7 -5 15 4 9 -1 18 -12 22
-11 3 -22 11 -26 17 -5 7 -8 7 -8 -2 0 -10 -5 -10 -20 -2 -11 6 -20 7 -20 3 0
-11 -70 -8 -101 5 -38 15 -92 12 -107 -7 -12 -14 -13 -14 -8 4 5 17 3 16 -14
-5 -11 -14 -18 -31 -15 -37 2 -7 0 -13 -5 -13 -6 0 -10 5 -10 12 0 9 -3 9 -12
0 -10 -10 -10 -15 2 -22 12 -8 10 -10 -10 -10 -15 0 -31 -9 -39 -22 l-14 -23
24 20 24 20 -19 -22 c-16 -19 -22 -21 -35 -11 -9 7 -13 8 -9 4 4 -5 2 -16 -5
-24 -9 -13 -9 -14 1 -8 7 4 12 2 12 -5 0 -6 -8 -9 -20 -6 -11 3 -23 0 -27 -5
-3 -7 -1 -8 5 -4 7 4 12 2 12 -3 0 -6 -6 -11 -14 -11 -8 0 -18 -5 -22 -12 -5
-7 -3 -8 6 -3 9 5 11 4 6 -4 -6 -9 -11 -9 -21 -1 -11 9 -13 7 -9 -14 2 -15 0
-26 -6 -26 -6 0 -8 5 -5 10 3 6 1 10 -4 10 -6 0 -11 -7 -11 -16 0 -8 -4 -13
-9 -9 -6 3 -15 -4 -21 -15 -6 -11 -18 -20 -28 -20 -13 0 -14 -2 -4 -9 10 -6 4
-10 -18 -14 -17 -4 -29 -11 -25 -17 11 -18 -6 -32 -23 -18 -12 10 -14 10 -8 0
4 -7 1 -15 -8 -18 -9 -3 -13 -11 -10 -16 4 -6 1 -9 -7 -6 -8 3 -20 -1 -27 -9
-8 -7 -18 -10 -24 -7 -7 4 -8 2 -4 -4 4 -7 2 -12 -4 -12 -6 0 -9 -4 -6 -9 4
-5 -2 -8 -11 -7 -10 2 -32 -12 -50 -30 -31 -33 -51 -45 -37 -22 4 7 3 8 -5 4
-9 -6 -9 -11 1 -24 12 -14 10 -14 -11 -3 -16 9 -21 10 -16 1 4 -7 -1 -13 -14
-17 -11 -3 -18 -9 -15 -14 3 -5 -4 -9 -15 -9 -13 0 -21 -7 -21 -17 0 -15 -2
-16 -10 -3 -8 12 -10 12 -10 1 0 -8 -3 -11 -7 -8 -3 4 -12 -1 -20 -11 -8 -9
-11 -11 -7 -3 5 9 3 12 -4 7 -7 -4 -12 -14 -12 -23 0 -13 -3 -13 -15 -3 -13
11 -14 10 -10 -3 4 -8 1 -18 -6 -23 -8 -4 -10 -3 -5 4 4 7 2 12 -3 12 -6 0
-11 -4 -11 -10 0 -5 -7 -6 -17 -3 -11 4 -14 3 -9 -5 7 -11 -6 -17 -28 -13 -5
1 -4 -5 3 -13 10 -12 9 -14 -9 -9 -11 3 -20 2 -19 -3 4 -21 -2 -24 -22 -13
-13 7 -19 7 -15 1 3 -6 1 -14 -5 -18 -6 -3 -15 -1 -19 6 -5 8 -9 7 -13 -5 -4
-9 -3 -13 3 -10 6 3 10 4 10 1 0 -3 -10 -10 -21 -17 -12 -6 -19 -7 -16 -2 4 5
0 10 -8 10 -8 0 -13 -4 -12 -9 3 -12 -70 -38 -80 -29 -4 3 -5 2 -1 -3 13 -16
-24 -35 -46 -24 -10 5 -16 6 -13 1 7 -12 -23 -31 -45 -27 -10 1 -15 -3 -12
-11 4 -9 -1 -12 -14 -8 -11 2 -23 0 -26 -6 -4 -6 -16 -11 -26 -11 -10 0 -22
-5 -26 -12 -5 -7 -3 -8 6 -3 9 5 11 4 6 -4 -6 -9 -11 -9 -22 0 -8 6 -14 7 -14
3 0 -5 -9 -15 -21 -22 -12 -8 -18 -9 -14 -3 3 6 -1 11 -10 11 -9 0 -13 -5 -10
-10 3 -6 -1 -10 -9 -10 -9 0 -16 -5 -16 -11 0 -5 -5 -7 -10 -4 -6 4 -17 1 -25
-5 -8 -6 -19 -9 -25 -5 -5 3 -10 2 -10 -4 0 -6 -7 -8 -15 -5 -8 4 -15 1 -15
-5 0 -6 -11 -11 -24 -11 -14 0 -28 -5 -31 -11 -4 -6 -13 -8 -21 -5 -8 3 -14 1
-14 -4 0 -5 -7 -7 -15 -4 -8 4 -15 1 -15 -6 0 -7 -8 -10 -20 -7 -13 3 -18 1
-13 -6 4 -6 -2 -8 -16 -4 -17 4 -21 2 -17 -9 7 -19 -11 -18 -22 2 -8 15 -10
15 -15 0 -4 -9 -16 -16 -27 -16 -11 0 -20 -6 -20 -12 0 -9 -4 -8 -10 2 -6 9
-10 11 -10 3 0 -7 -7 -10 -15 -7 -8 4 -15 2 -15 -4 0 -5 -7 -13 -16 -16 -8 -3
-12 -2 -9 4 10 16 -5 12 -23 -6 -10 -11 -17 -13 -20 -6 -2 8 -11 7 -26 -3 -12
-8 -26 -12 -29 -8 -4 3 -7 0 -7 -8 0 -12 -2 -11 -10 1 -9 13 -12 13 -24 -3
-14 -18 -32 -24 -21 -7 3 6 -1 7 -9 4 -9 -3 -14 -9 -12 -13 2 -3 -7 -6 -20 -6
-13 0 -24 4 -24 9 0 5 -6 4 -12 -2 -7 -6 -31 -13 -53 -17 -22 -4 -46 -13 -54
-19 -11 -8 -13 -8 -7 2 10 16 -10 15 -26 -2 -9 -9 -20 -11 -36 -5 -17 7 -24 5
-29 -7 -5 -13 -7 -13 -14 -2 -5 7 -9 8 -9 2 0 -5 -21 -11 -47 -13 -26 -1 -51
-8 -55 -14 -5 -8 -8 -8 -8 -1 0 6 -7 11 -15 11 -8 0 -12 -4 -10 -8 7 -10 -31
-18 -45 -9 -17 11 -51 0 -43 -14 4 -6 -2 -4 -12 4 -10 8 -16 10 -12 3 9 -15
-115 -23 -125 -8 -5 6 -8 5 -8 -4 0 -7 -6 -11 -14 -8 -8 3 -17 -1 -20 -10 -5
-12 -9 -13 -20 -4 -10 8 -16 9 -21 1 -3 -6 -11 -7 -18 -3 -20 12 -59 9 -65 -5
-4 -11 -6 -11 -13 0 -6 9 -9 9 -9 1 0 -6 -9 -10 -20 -8 -11 2 -20 -1 -20 -6 0
-6 -8 -6 -20 1 -14 8 -20 8 -20 0 0 -8 -6 -8 -20 0 -14 8 -20 8 -20 0 0 -8 -6
-8 -20 0 -12 6 -20 7 -20 1 0 -10 -25 -9 -36 2 -4 3 -14 2 -24 -3 -10 -5 -20
-6 -24 -3 -3 3 -6 1 -6 -5 0 -7 -5 -12 -11 -12 -5 0 -7 6 -3 13 6 8 3 8 -9 -1
-9 -8 -21 -11 -27 -7 -5 3 -10 2 -10 -2 0 -10 -47 -10 -56 0 -4 3 -14 3 -23
-2 -15 -7 -33 -7 -46 -1 -13 6 -31 5 -42 -2 -6 -5 -14 -4 -18 2 -4 6 -12 7
-18 3 -15 -10 -38 -10 -54 0 -8 5 -13 3 -13 -4 0 -7 -4 -8 -12 -2 -15 11 -28
11 -45 0 -6 -4 -14 -3 -18 3 -4 6 -13 7 -23 2 -20 -10 -33 -10 -49 1 -8 5 -13
3 -13 -4 0 -7 -4 -8 -12 -2 -11 8 -33 10 -40 3 -7 -5 -68 -4 -68 1 0 3 -20 3
-45 -1 -25 -4 -48 -3 -51 2 -3 4 -13 4 -23 -1 -9 -5 -23 -6 -31 -1 -7 4 -23 5
-35 0 -12 -5 -28 -5 -35 0 -7 5 -24 4 -36 0 -14 -6 -26 -5 -29 1 -4 6 -13 6
-23 0 -11 -6 -26 -4 -47 6 -29 16 -30 15 -15 -3 14 -18 14 -18 -5 -3 -22 18
-85 31 -85 17 0 -5 -9 -4 -20 2 -14 8 -20 8 -20 0 0 -8 -6 -8 -20 0 -14 8 -20
8 -20 0 0 -8 -6 -8 -20 0 -11 6 -20 7 -20 2 0 -5 -7 -9 -15 -9 -8 0 -15 4 -15
9 0 4 -10 8 -23 8 -13 0 -28 5 -35 12 -9 9 -12 9 -12 0 0 -10 -5 -10 -20 -2
-15 8 -20 8 -20 -1 0 -8 -4 -8 -12 -1 -7 5 -22 6 -33 2 -12 -4 -25 -1 -34 7
-10 11 -16 11 -21 3 -5 -8 -9 -7 -13 5 -5 12 -11 14 -25 6 -13 -7 -22 -7 -30
1 -8 8 -12 8 -12 2 0 -15 -42 -11 -59 5 -13 11 -16 11 -22 -5 -7 -16 -8 -15
-8 6 -1 18 -4 21 -13 12 -8 -8 -17 -8 -31 -1 -15 9 -18 8 -12 -2 6 -8 4 -10
-6 -3 -8 5 -18 9 -24 10 -5 0 -16 2 -23 2 -8 1 -10 7 -6 15 6 9 4 9 -8 -1 -9
-7 -18 -9 -21 -5 -3 5 -21 8 -41 7 -21 -1 -36 3 -36 10 0 6 -5 4 -10 -4 -8
-12 -10 -12 -10 -1 0 9 -8 12 -25 9 -14 -3 -25 -1 -25 4 0 6 -7 8 -15 4 -8 -3
-21 2 -30 10 -8 9 -15 11 -15 4 0 -7 -6 -8 -19 -1 -10 6 -21 7 -25 4 -3 -3 -6
-1 -6 6 0 7 -5 9 -10 6 -6 -4 -18 -1 -27 7 -14 11 -16 11 -9 -1 5 -8 -3 -6
-20 5 -16 11 -25 13 -20 6 6 -10 0 -9 -23 2 -24 13 -31 13 -32 4 0 -7 -4 -4
-9 7 -5 11 -9 14 -9 6 -1 -10 -4 -11 -14 -2 -8 6 -17 8 -20 4 -4 -3 -7 0 -7 7
0 7 -3 10 -6 7 -4 -3 -16 -2 -27 4 -15 8 -18 8 -12 -1 6 -9 3 -9 -13 -1 -12 6
-24 16 -27 21 -4 6 -10 8 -15 5 -5 -3 -21 0 -37 6 -15 7 -36 11 -47 10 -11 -2
-16 2 -12 8 7 11 -6 15 -32 12 -8 -1 -19 3 -26 8 -7 6 -25 12 -40 13 -14 1
-26 5 -26 9 0 4 -7 10 -16 13 -10 4 -13 2 -7 -7 4 -6 -5 -4 -21 6 -15 10 -34
16 -42 13 -8 -3 -14 0 -14 5 0 6 -9 9 -20 6 -10 -3 -19 -2 -18 2 2 19 -3 24
-12 11 -8 -13 -10 -13 -10 1 0 18 -44 34 -62 23 -7 -4 -8 -3 -4 4 7 12 -5 16
-33 13 -7 -2 -10 2 -6 8 5 10 -22 16 -47 12 -5 0 -8 3 -8 8 0 5 -7 12 -16 15
-8 3 -12 2 -9 -4 3 -6 1 -10 -4 -10 -6 0 -11 6 -11 14 0 16 -16 24 -47 21 -12
-1 -20 2 -17 7 3 4 -7 8 -21 8 -14 0 -24 4 -21 9 3 5 -1 12 -10 15 -10 4 -13
2 -9 -7 4 -6 0 -4 -9 7 -8 10 -22 16 -31 13 -13 -6 -19 3 -17 24 1 3 -5 6 -13
6 -8 0 -12 -4 -9 -9 4 -5 -3 -4 -14 3 -12 7 -19 16 -16 20 2 4 -1 11 -7 15 -8
4 -9 3 -5 -4 4 -7 1 -12 -8 -12 -8 0 -20 8 -25 18 -8 13 -11 14 -11 2 -1 -9
-5 -7 -10 7 -7 16 -14 20 -31 16 -15 -4 -20 -3 -15 5 5 8 -1 12 -16 12 -18 0
-20 2 -8 10 12 8 10 10 -8 10 -13 0 -21 4 -18 9 4 5 -3 7 -13 4 -13 -3 -23 2
-30 15 -8 14 -17 19 -32 15 -14 -4 -20 -2 -16 5 4 6 -6 16 -23 24 -16 7 -30
16 -30 20 0 5 -9 8 -20 8 -11 0 -20 5 -20 11 0 5 5 7 12 3 7 -4 8 -3 4 5 -6 9
-11 9 -22 0 -9 -7 -14 -8 -13 -3 4 21 -2 28 -11 14 -8 -12 -10 -11 -10 6 0 12
-7 25 -16 28 -14 5 -15 4 -4 -9 11 -13 10 -14 -4 -9 -15 6 -20 17 -17 37 1 4
-8 3 -19 -3 -11 -6 -20 -7 -19 -3 1 4 1 17 0 28 -1 17 -3 18 -11 5 -8 -13 -10
-12 -10 4 0 12 -5 16 -15 13 -8 -4 -17 -1 -21 5 -5 7 -2 8 6 3 9 -5 11 -4 6 4
-6 9 -11 9 -24 -1 -10 -9 -13 -9 -9 -1 10 15 -42 63 -68 63 -17 0 -18 2 -5 11
12 9 11 10 -7 6 -19 -4 -21 -2 -13 13 8 15 6 17 -13 13 -18 -4 -19 -3 -7 6 12
9 11 11 -8 11 -13 0 -21 4 -17 9 3 6 -4 15 -16 22 -16 8 -23 8 -29 -1 -5 -8
-9 -7 -13 5 -4 9 -3 13 3 10 6 -3 10 -1 10 4 0 10 -14 15 -33 12 -5 -1 -6 3
-2 9 3 5 -1 10 -10 10 -10 0 -13 5 -9 12 5 8 2 9 -11 4 -15 -5 -16 -4 -5 9 10
12 9 15 -6 15 -12 0 -25 12 -33 31 -10 23 -16 28 -22 18 -7 -12 -9 -11 -10 1
-1 8 -1 18 0 23 0 4 -4 7 -10 7 -5 0 -7 6 -3 13 5 7 0 6 -11 -3 -11 -9 -16
-10 -11 -2 4 8 1 12 -9 12 -11 0 -15 5 -12 15 4 8 1 17 -5 21 -7 4 -8 3 -4 -4
4 -7 2 -12 -3 -12 -6 0 -11 7 -11 16 0 9 -5 12 -12 8 -8 -5 -9 -2 -5 9 8 22
-16 33 -80 36 -36 2 -53 -1 -53 -9 0 -10 -4 -9 -15 0 -8 7 -15 8 -15 2z m155
-20 c-3 -3 -11 0 -18 7 -9 10 -8 11 6 5 10 -3 15 -9 12 -12z m-160 -230 c-3
-3 -11 0 -18 7 -9 10 -8 11 6 5 10 -3 15 -9 12 -12z m6845 -237 c0 -8 -4 -15
-10 -15 -5 0 -7 7 -4 15 4 8 8 15 10 15 2 0 4 -7 4 -15z"/>
<path d="M1070 1400 c0 -5 5 -10 11 -10 5 0 7 5 4 10 -3 6 -8 10 -11 10 -2 0
-4 -4 -4 -10z"/>
<path d="M8585 1321 c-3 -5 -2 -12 3 -15 5 -3 9 1 9 9 0 17 -3 19 -12 6z"/>
<path d="M1296 1167 c3 -10 9 -15 12 -12 3 3 0 11 -7 18 -10 9 -11 8 -5 -6z"/>
</g>
</svg>
